Simulation
nRows=32
nColumns=15
endheader
time  TH_x TH_y TH_z SC_y  SC_z  SC_x  AC_y  AC_z  AC_x  GH_y  GH_z  GH_yy  EL_x  PS_y
2.681  0.000000  0.000000  0.000000  -22.63489625957018  6.398527548745718  -1.582608640694714  51.10747375010814  7.064998621339043  2.2062407833041355  -21.191873095739705  7.768249441815315  54.776213002691414  15.87226100260472  120.000000
2.73462  0.000000  0.000000  0.000000  -22.04574376083497  5.9498388482913045  -2.1648936438758604  51.47282386111145  7.578152261489821  2.5241738035790897  -22.41456327437952  6.162167174378746  58.85989876588507  16.937437369456042  120.000000
2.78824  0.000000  0.000000  0.000000  -21.84213564606263  5.637011811023277  -2.5447729176057914  51.804674499422944  8.19133005719316  2.795592403551931  -21.362246147513833  4.714985476829606  59.94962263795948  17.801067847082695  120.000000
2.84186  0.000000  0.000000  0.000000  -21.93398551673368  5.439762670909118  -2.7610779618388595  52.0741038035479  8.864853145649423  3.008563391997152  -16.925012867256715  3.455199436926644  57.00965347944453  18.422652947075463  120.000000
2.89548  0.000000  0.000000  0.000000  -22.203928249123525  5.328316257945397  -2.8520644843719185  52.2746272334683  9.556015556394478  3.1623753772388596  -7.426270146439609  2.4547757667924635  48.49256389442682  18.79570154942222  120.000000
2.9491  0.000000  0.000000  0.000000  -22.539772170639925  5.2711215916063505  -2.8527208120701597  52.417844383483086  10.224660595633098  3.2634826549355695  8.700570960670959  1.7934106671899912  32.97063973181516  18.939923831297566  120.000000
3.00272  0.000000  0.000000  0.000000  -22.85778755837458  5.240559689413009  -2.794628580163555  52.52371387490974  10.838958913937242  3.322855801994747  28.931358117792612  1.4983347127553628  13.08571309058443  18.898917266003796  120.000000
3.05634  0.000000  0.000000  0.000000  -23.10993463243516  5.215822067529021  -2.7085069110606876  52.61164337635699  11.379231152157152  3.355141003748492  45.421308124671604  1.4706544886143356  -3.230580021933296  18.733954749251595  120.000000
3.10996  0.000000  0.000000  0.000000  -23.27808468440561  5.183765070586603  -2.6257151793686395  52.69642302603131  11.83690760325738  3.3763167077809335  54.31894890395683  1.561294197784134  -12.06570951656331  18.51115970718476  120.000000
3.16358  0.000000  0.000000  0.000000  -23.362958560901554  5.138054706074283  -2.5717506247965134  52.787435145073644  12.208481865779095  3.398996074143613  57.2088057369374  1.69450339890514  -14.960601856217119  18.285533350777914  120.000000
3.2172  0.000000  0.000000  0.000000  -23.376021111088857  5.076704117796094  -2.560514760685334  52.88635286728781  12.491780687907648  3.4311647054514878  56.54962345293622  1.8580808294294282  -14.343496307879624  18.088150931292926  120.000000
3.27082  0.000000  0.000000  0.000000  -23.333272861133416  5.001463741472369  -2.5975830176838604  52.98871435728353  12.68917068839375  3.4783135388475275  54.21054395534799  2.059890347055663  -12.063670434727888  17.924038145723845  120.000000
3.32444  0.000000  0.000000  0.000000  -23.24962877782266  4.920112181351497  -2.6831253744794084  53.08975763385765  12.809182899231633  3.543077515750842  51.41423736189267  2.309679644472845  -9.33312273227701  17.782264824216337  120.000000
3.37806  0.000000  0.000000  0.000000  -23.136594981565196  4.843652700687851  -2.814808265024823  53.186506714830976  12.864197235051877  3.6246400179871694  48.81864026906533  2.6143826146635267  -6.805958370191426  17.648420382725625  120.000000
3.43168  0.000000  0.000000  0.000000  -23.00262252926581  4.7811166121409  -2.99001381439774  53.27469585817475  12.866080383763983  3.721063098599388  46.64452542642865  2.976360208667871  -4.703177038900759  17.513553621786727  120.000000
3.4853  0.000000  0.000000  0.000000  -22.85263153653039  4.736736381227519  -3.206613222639916  53.347191323394576  12.823070575401395  3.831193318336873  44.83965933501058  3.394195028264534  -2.9735959303499677  17.377473789458676  120.000000
3.53892  0.000000  0.000000  0.000000  -22.687413914457313  4.709390831581414  -3.463596026838745  53.39530940284519  12.738872979914126  3.954629546084132  43.23033314493206  3.8644888677166946  -1.4434443719771939  17.24610430216221  120.000000
3.59254  0.000000  0.000000  0.000000  -22.50221809182416  4.693862979722191  -3.7616622716584756  53.41242346682357  12.61360624650854  4.0904749707916315  41.61965154539904  4.383901105120154  0.08701943401780055  17.125076903098325  120.000000
3.64616  0.000000  0.000000  0.000000  -22.28669511407899  4.681982090350423  -4.1029110399981965  53.39590217433216  12.445993448131722  4.236588508848749  39.82439104999127  4.951085789625279  1.8069637675581507  17.01271159515007  120.000000
3.69978  0.000000  0.000000  0.000000  -22.026381503613894  4.663976159297855  -4.490056206142758  53.34759107863121  12.236001538190873  4.38998877517563  37.69013881484862  5.569589116347762  3.878326646368204  16.896154223203247  120.000000
3.7534  0.000000  0.000000  0.000000  -21.70717878342968  4.629295605139757  -4.925838864743887  53.27266342879247  11.98693098924063  4.547451827663576  35.11854253747745  6.251931317365689  6.403175042444973  16.753217802355934  120.000000
3.80702  0.000000  0.000000  0.000000  -21.321688397113494  4.566955671771959  -5.412842851773674  53.178037565977064  11.706417779787706  4.705649065342862  32.100757286756824  7.023296166446932  9.382390096209138  16.55772487016201  120.000000
3.86064  0.000000  0.000000  0.000000  -20.876399809210028  4.466339522815518  -5.95303461990721  53.06955155778959  11.405945751779221  4.862001975010109  28.739047296539784  7.922099932729438  12.685736055834091  16.285286705077336  120.000000
3.91426  0.000000  0.000000  0.000000  -20.395412635197694  4.317360621252131  -6.547246176167995  52.95031658253346  11.100489964567831  5.015022352750271  25.226037533335944  8.995955898558064  16.06953763412509  15.916735644097995  120.000000
3.96788  0.000000  0.000000  0.000000  -19.916349842278755  4.114056127558976  -7.19463366878942  52.82405706409418  10.809490929442994  5.164056947665545  21.78815592468603  10.295004427782798  19.23952580798473  15.44050052932544  120.000000
4.0215  0.000000  0.000000  0.000000  -19.48278177068758  3.8570035686014905  -7.891293320427661  52.6990985539284  10.558659773224868  5.310448521278611  18.607772235464772  11.86570139939137  21.94260249831421  14.857001701522142  120.000000
4.07512  0.000000  0.000000  0.000000  -19.13622703930542  3.551486051210132  -8.627027196302349  52.58737823820833  10.38087412470641  5.460132462995031  15.76906844474648  13.745730514927972  24.0370213979938  14.186903294139125  120.000000
4.1287400000000005  0.000000  0.000000  0.000000  -18.91098051420026  3.209147281860208  -9.380948179730302  52.504216953705956  10.31668083765305  5.62172495936842  13.268894081382347  15.962157842625297  25.49286942552978  13.478541122802238  120.000000
4.18236  0.000000  0.000000  0.000000  -18.830068730320534  2.8517093921041146  -10.117925091999147  52.46701753862918  10.412597025148811  5.800738693692091  11.053242058210142  18.527370041927057  26.354163970002997  12.803052999110246  120.000000
4.23598  0.000000  0.000000  0.000000  -18.900736492487354  2.5116632497382168  -10.786646524179915  52.49315614590042  10.715788369748852  5.994605751380969  9.056493726730368  21.429992168826647  26.68824229045513  12.23496542998534  120.000000
4.2896  0.000000  0.000000  0.000000  -19.104554223196114  2.227571606096999  -11.318636862036179  52.60056540959081  11.267986969928709  6.191557925291012  7.229965268547823  24.623884023582118  26.546966760862585  11.825603277097288  120.000000
4.3432200000000005  0.000000  0.000000  0.000000  -19.39955808435938  2.025520160259234  -11.639198724696033  52.79183583527371  12.093665968968196  6.3856553698619996  5.528413155590444  28.013089810447006  25.977173466380968  11.58000143991481  120.000000
